<mxfile host="app.diagrams.net" modified="2022-12-08T22:12:40.829Z" agent="5.0 (X11; Ubuntu)" etag="xHh0VQeemgvl8KtQAZEP" version="20.6.0" type="github">
  <diagram id="zjbsmMx9dNUYekVJXI4S" name="Page-1">
    <mxGraphModel dx="68" dy="993" grid="1" gridSize="10" guides="1" tooltips="1" connect="1" arrows="1" fold="1" page="0" pageScale="1" pageWidth="850" pageHeight="1100" math="0" shadow="0">
      <root>
        <mxCell id="0" />
        <mxCell id="1" parent="0" />
        <mxCell id="j1M_ww33Xoy92D7wLLYM-145" value="" style="rounded=0;whiteSpace=wrap;html=1;strokeWidth=1;fontSize=18;" parent="1" vertex="1">
          <mxGeometry x="960" y="420" width="680" height="860" as="geometry" />
        </mxCell>
        <mxCell id="_Qzaa5entBogjLJZciO9-70" value="&lt;font style=&quot;font-size: 33px;&quot;&gt;Wireframe of the contact us page&lt;/font&gt;" style="text;html=1;strokeColor=none;fillColor=none;align=center;verticalAlign=middle;whiteSpace=wrap;rounded=0;fontSize=16;" parent="1" vertex="1">
          <mxGeometry x="1140" y="-60" width="320" height="100" as="geometry" />
        </mxCell>
        <mxCell id="j1M_ww33Xoy92D7wLLYM-1" value="" style="rounded=0;whiteSpace=wrap;html=1;" parent="1" vertex="1">
          <mxGeometry x="960" y="120" width="680" height="210" as="geometry" />
        </mxCell>
        <mxCell id="j1M_ww33Xoy92D7wLLYM-2" value="&lt;font style=&quot;font-size: 16px;&quot;&gt;Logo&lt;/font&gt;" style="ellipse;whiteSpace=wrap;html=1;aspect=fixed;" parent="1" vertex="1">
          <mxGeometry x="1010" y="160" width="140" height="140" as="geometry" />
        </mxCell>
        <mxCell id="j1M_ww33Xoy92D7wLLYM-3" value="Moto" style="rounded=0;whiteSpace=wrap;html=1;fontSize=16;" parent="1" vertex="1">
          <mxGeometry x="1200" y="195" width="370" height="60" as="geometry" />
        </mxCell>
        <mxCell id="j1M_ww33Xoy92D7wLLYM-4" value="" style="rounded=0;whiteSpace=wrap;html=1;fontSize=16;" parent="1" vertex="1">
          <mxGeometry x="960" y="330" width="680" height="50" as="geometry" />
        </mxCell>
        <mxCell id="j1M_ww33Xoy92D7wLLYM-5" value="Academics" style="rounded=0;whiteSpace=wrap;html=1;fontSize=16;" parent="1" vertex="1">
          <mxGeometry x="1110" y="330" width="120" height="50" as="geometry" />
        </mxCell>
        <mxCell id="j1M_ww33Xoy92D7wLLYM-6" value="Calendar" style="rounded=0;whiteSpace=wrap;html=1;fontSize=16;" parent="1" vertex="1">
          <mxGeometry x="1240" y="330" width="120" height="50" as="geometry" />
        </mxCell>
        <mxCell id="j1M_ww33Xoy92D7wLLYM-7" value="About" style="rounded=0;whiteSpace=wrap;html=1;fontSize=16;" parent="1" vertex="1">
          <mxGeometry x="1500" y="330" width="120" height="50" as="geometry" />
        </mxCell>
        <mxCell id="j1M_ww33Xoy92D7wLLYM-8" value="Home" style="rounded=0;whiteSpace=wrap;html=1;fontSize=16;" parent="1" vertex="1">
          <mxGeometry x="980" y="330" width="120" height="50" as="geometry" />
        </mxCell>
        <mxCell id="j1M_ww33Xoy92D7wLLYM-9" value="space" style="rounded=0;whiteSpace=wrap;html=1;fontSize=16;" parent="1" vertex="1">
          <mxGeometry x="960" y="380" width="680" height="40" as="geometry" />
        </mxCell>
        <mxCell id="j1M_ww33Xoy92D7wLLYM-10" value="Stories" style="rounded=0;whiteSpace=wrap;html=1;fontSize=16;" parent="1" vertex="1">
          <mxGeometry x="1370" y="330" width="120" height="50" as="geometry" />
        </mxCell>
        <mxCell id="j1M_ww33Xoy92D7wLLYM-124" value="Get us here" style="rounded=0;whiteSpace=wrap;html=1;strokeWidth=1;fontSize=16;" parent="1" vertex="1">
          <mxGeometry x="980" y="515" width="120" height="60" as="geometry" />
        </mxCell>
        <mxCell id="j1M_ww33Xoy92D7wLLYM-125" value="Google maps" style="rounded=0;whiteSpace=wrap;html=1;strokeWidth=1;fontSize=18;" parent="1" vertex="1">
          <mxGeometry x="980" y="595" width="640" height="315" as="geometry" />
        </mxCell>
        <mxCell id="j1M_ww33Xoy92D7wLLYM-126" value="space" style="rounded=0;whiteSpace=wrap;html=1;fontSize=16;" parent="1" vertex="1">
          <mxGeometry x="960" y="1280" width="680" height="70" as="geometry" />
        </mxCell>
        <mxCell id="j1M_ww33Xoy92D7wLLYM-127" value="" style="rounded=0;whiteSpace=wrap;html=1;fontSize=16;" parent="1" vertex="1">
          <mxGeometry x="960" y="1350" width="680" height="260" as="geometry" />
        </mxCell>
        <mxCell id="j1M_ww33Xoy92D7wLLYM-132" value="Site-map" style="rounded=0;whiteSpace=wrap;html=1;fontSize=16;" parent="1" vertex="1">
          <mxGeometry x="1100" y="1380" width="110" height="40" as="geometry" />
        </mxCell>
        <mxCell id="j1M_ww33Xoy92D7wLLYM-133" value="&lt;div align=&quot;left&quot;&gt;- Home&lt;/div&gt;&lt;div align=&quot;left&quot;&gt;- Calendar&lt;/div&gt;&lt;div align=&quot;left&quot;&gt;- Success stories&lt;br&gt;&lt;/div&gt;&lt;div align=&quot;left&quot;&gt;- About&lt;/div&gt;&lt;div align=&quot;left&quot;&gt;- Contact us&lt;/div&gt;&lt;div&gt;&lt;br&gt;&lt;/div&gt;&lt;div&gt;&lt;br&gt;&lt;/div&gt;" style="text;html=1;strokeColor=none;fillColor=none;align=center;verticalAlign=middle;whiteSpace=wrap;rounded=0;fontSize=16;" parent="1" vertex="1">
          <mxGeometry x="1090" y="1450" width="140" height="140" as="geometry" />
        </mxCell>
        <mxCell id="j1M_ww33Xoy92D7wLLYM-134" value="Logo" style="ellipse;whiteSpace=wrap;html=1;aspect=fixed;fontSize=16;" parent="1" vertex="1">
          <mxGeometry x="1360" y="1380" width="70" height="70" as="geometry" />
        </mxCell>
        <mxCell id="j1M_ww33Xoy92D7wLLYM-135" value="&lt;font style=&quot;font-size: 18px;&quot;&gt;School Name&lt;/font&gt;" style="text;html=1;strokeColor=none;fillColor=none;align=center;verticalAlign=middle;whiteSpace=wrap;rounded=0;fontSize=16;" parent="1" vertex="1">
          <mxGeometry x="1430" y="1385" width="90" height="60" as="geometry" />
        </mxCell>
        <mxCell id="j1M_ww33Xoy92D7wLLYM-136" value="&lt;div align=&quot;left&quot;&gt;&lt;font style=&quot;font-size: 16px;&quot;&gt;Phone number&lt;/font&gt;&lt;/div&gt;" style="text;html=1;strokeColor=none;fillColor=none;align=left;verticalAlign=middle;whiteSpace=wrap;rounded=0;fontSize=18;" parent="1" vertex="1">
          <mxGeometry x="1370" y="1460" width="135" height="30" as="geometry" />
        </mxCell>
        <mxCell id="j1M_ww33Xoy92D7wLLYM-137" value="&lt;div style=&quot;font-size: 16px;&quot; align=&quot;left&quot;&gt;&lt;font style=&quot;font-size: 16px;&quot;&gt;Email address&lt;br&gt;&lt;/font&gt;&lt;/div&gt;" style="text;html=1;strokeColor=none;fillColor=none;align=left;verticalAlign=middle;whiteSpace=wrap;rounded=0;fontSize=18;" parent="1" vertex="1">
          <mxGeometry x="1370" y="1490" width="135" height="30" as="geometry" />
        </mxCell>
        <mxCell id="j1M_ww33Xoy92D7wLLYM-138" value="&lt;font style=&quot;font-size: 16px;&quot;&gt;Postal code&lt;/font&gt;" style="text;html=1;strokeColor=none;fillColor=none;align=left;verticalAlign=middle;whiteSpace=wrap;rounded=0;fontSize=18;" parent="1" vertex="1">
          <mxGeometry x="1370" y="1520" width="135" height="30" as="geometry" />
        </mxCell>
        <mxCell id="j1M_ww33Xoy92D7wLLYM-139" value="&lt;div align=&quot;left&quot;&gt;&amp;nbsp;&amp;nbsp;&amp;nbsp;&amp;nbsp;&amp;nbsp;&amp;nbsp; copyright information&lt;br&gt;&lt;/div&gt;" style="rounded=0;whiteSpace=wrap;html=1;fontSize=16;align=left;" parent="1" vertex="1">
          <mxGeometry x="960" y="1610" width="680" height="40" as="geometry" />
        </mxCell>
        <mxCell id="j1M_ww33Xoy92D7wLLYM-140" value="Send us a word" style="rounded=0;whiteSpace=wrap;html=1;fontSize=16;" parent="1" vertex="1">
          <mxGeometry x="1220" y="950" width="160" height="50" as="geometry" />
        </mxCell>
        <mxCell id="j1M_ww33Xoy92D7wLLYM-141" value="email field" style="rounded=0;whiteSpace=wrap;html=1;fontSize=16;" parent="1" vertex="1">
          <mxGeometry x="1160" y="1020" width="290" height="40" as="geometry" />
        </mxCell>
        <mxCell id="j1M_ww33Xoy92D7wLLYM-142" value="message field" style="rounded=0;whiteSpace=wrap;html=1;fontSize=16;" parent="1" vertex="1">
          <mxGeometry x="1160" y="1080" width="290" height="110" as="geometry" />
        </mxCell>
        <mxCell id="j1M_ww33Xoy92D7wLLYM-143" value="submit" style="rounded=1;whiteSpace=wrap;html=1;fontSize=16;" parent="1" vertex="1">
          <mxGeometry x="1260" y="1210" width="100" height="30" as="geometry" />
        </mxCell>
        <mxCell id="j1M_ww33Xoy92D7wLLYM-123" value="&lt;font style=&quot;font-size: 18px;&quot;&gt;Contact us&lt;/font&gt;" style="rounded=0;whiteSpace=wrap;html=1;strokeWidth=1;fontSize=16;" parent="1" vertex="1">
          <mxGeometry x="1240" y="440" width="120" height="60" as="geometry" />
        </mxCell>
      </root>
    </mxGraphModel>
  </diagram>
</mxfile>
